<svg width="282" height="138" viewBox="0 0 282 138" fill="none" xmlns="http://www.w3.org/2000/svg">
<g clip-path="url(#clip0)">
<rect width="282" height="138" rx="12" fill="#FACD5D"/>
<rect width="282" height="138" rx="12" fill="#FFEE56"/>
<path d="M316.004 62.5842C314.535 62.9505 312.698 63.6832 311.228 64.4158C309.024 65.8812 307.187 68.0792 304.983 69.9109C302.411 72.4752 299.104 75.0396 295.798 76.5049C289.92 79.0693 283.307 79.4356 277.061 79.0693C266.407 78.3366 256.487 75.4059 246.568 72.1089C240.322 69.9109 234.444 67.7129 228.198 65.5148C219.381 62.5842 209.829 61.1188 200.644 59.2871C194.766 58.1881 188.888 56.7228 183.377 53.7921C177.131 50.1287 170.886 46.4653 164.64 42.802C154.721 37.3069 144.801 31.8119 134.882 25.9505C130.84 23.7525 126.432 21.1881 122.39 18.6238C119.819 17.1584 117.247 14.9604 114.308 13.495C109.164 10.9307 103.654 9.46534 97.7754 8.73267C95.571 8.36633 93.3667 8.36634 91.1624 8C88.958 8 86.7537 8 84.182 8C83.8146 8 83.4472 8 83.0798 8C74.2625 8.36634 66.1799 10.198 58.0974 13.1287C52.2192 15.3267 45.9735 17.5247 40.0953 19.7228C39.3606 20.0891 38.6258 19.7228 38.2584 19.3564C37.1562 18.6238 36.054 17.5248 34.9519 17.1584C32.0128 15.3267 29.4411 16.0594 27.6041 18.6238C27.2367 18.6238 27.2367 18.6238 26.8693 18.6238C24.665 17.8911 22.8281 18.6238 21.7259 20.4554C20.9911 21.9208 20.6237 23.3861 20.6237 24.8515C20.9911 27.4158 19.8889 29.2475 17.3172 30.3465C16.9498 30.3465 16.5825 30.7129 16.5825 30.7129C14.7455 31.8119 13.276 33.2772 12.1738 35.4752C11.439 36.9406 11.0716 38.7723 10.7042 40.2376C9.96945 43.901 8.86729 47.9307 8.13251 51.5941C7.76512 53.0594 8.13251 54.5248 9.60206 55.2574C11.8064 57.0891 13.276 58.5545 14.3781 60.0198C14.7455 60.7525 15.4803 61.1188 15.8477 61.8515C17.6846 63.3168 19.1542 64.0495 21.7259 62.9505C25.0324 61.4851 27.9715 59.6535 30.5432 57.4554C31.6454 56.3564 33.1149 55.9901 34.5845 55.9901C36.7888 55.9901 38.9932 55.9901 41.1975 55.9901C41.1975 55.9901 41.1975 55.9901 41.5649 56.3564C40.4627 56.7228 38.9932 57.4554 37.891 57.8218C34.2171 59.2871 30.5432 61.1188 27.9715 64.4158C25.7672 66.9802 24.2976 70.2772 23.9302 73.5743C23.5628 76.1386 25.0324 77.2376 27.2367 77.604C28.3389 77.604 29.0737 77.9703 29.8084 78.703C30.9106 79.802 32.0128 80.1683 33.4823 80.5347C33.8497 80.5347 34.5845 80.901 34.9519 81.2673C36.4214 82 37.5236 82 38.9932 80.901C40.0953 79.802 40.8301 78.703 41.9323 77.604C42.6671 76.8713 43.0344 76.1386 43.7692 75.0396C44.504 76.505 45.2388 77.604 46.3409 79.0693C47.0757 80.1683 48.1779 80.901 49.6474 80.901C52.2192 80.901 54.4235 81.2673 56.9952 81.2673C58.4648 81.2673 59.1995 80.901 59.5669 79.4356C59.9343 78.3366 60.6691 77.2376 61.7713 76.8713C62.8734 76.1386 63.2408 75.7723 62.506 74.6733C62.1386 74.3069 62.1387 73.9406 61.7713 73.2079C62.1387 73.2079 62.1386 72.8416 62.506 72.8416C67.6495 71.3762 72.7929 71.3762 77.9364 72.1089C83.8146 72.8416 89.3254 72.8416 95.2036 72.4752C98.5101 72.1089 102.184 72.1089 105.491 72.8416C116.145 75.0396 127.166 77.2376 137.821 79.0693C141.495 79.802 145.169 80.5347 148.842 81.6337C155.823 83.8317 161.701 88.5941 166.477 94.0891C171.62 99.9505 176.029 106.178 180.805 112.04C184.112 116.069 187.051 120.099 191.459 123.396C198.072 128.525 205.788 132.188 213.503 135.485C219.381 138.05 224.524 141.347 228.933 146.109C231.872 149.772 235.179 153.436 238.485 156.733C246.568 165.891 254.65 175.05 260.161 186.406C261.631 189.337 263.835 191.901 267.509 193C267.876 193 268.611 193 268.978 193C269.713 192.634 270.448 192.634 270.815 191.901C271.55 190.802 272.285 190.802 273.387 190.802C273.755 190.802 273.755 190.802 274.122 190.802C276.694 190.436 279.265 188.238 279.633 186.04C280 183.842 280 181.644 278.898 179.446C278.163 177.98 277.796 176.515 277.061 174.683C276.326 172.485 275.224 171.02 273.387 169.921C272.285 169.188 270.815 168.822 269.713 168.089C268.244 166.99 266.407 166.257 265.305 164.792C263.468 162.594 261.998 160.396 260.896 158.198C257.957 152.337 255.018 146.109 252.446 139.881C250.609 135.851 248.405 132.188 245.098 129.624C243.629 128.525 242.159 127.426 241.057 125.96C234.444 119 230.035 110.941 227.464 101.782C225.994 96.2871 224.524 90.7921 222.688 85.297C221.953 82.7327 220.483 80.1683 218.279 78.3366C217.544 77.604 216.809 77.2376 216.075 76.5049C216.809 76.5049 217.544 76.5049 217.911 76.5049C228.566 76.1386 238.485 78.703 248.405 81.2673C255.752 83.099 263.1 85.297 270.448 87.1287C277.428 88.5941 284.041 89.3267 291.022 88.2277C300.207 86.7624 308.289 82.7327 314.535 75.4059C317.106 72.4752 318.943 68.8119 318.943 64.7822C319.311 62.9505 317.841 61.8515 316.004 62.5842ZM21.3585 42.802C20.6237 43.901 19.5216 43.5347 18.7868 43.1683C17.6846 42.4356 17.6846 42.0693 18.4194 41.3366C18.7868 40.9703 19.5216 40.604 19.8889 40.2376C20.2563 39.8713 20.6237 39.8713 20.9911 39.505C22.0933 40.604 22.0933 41.703 21.3585 42.802Z" fill="white"/>
<path d="M14.994 99.486V96.624C16.074 96.462 17.136 96.264 18.018 96.03C18.324 95.958 18.792 95.832 19.404 95.688L17.928 93.708C17.028 94.122 15.192 94.536 13.392 94.788C11.412 95.076 8.622 95.112 7.254 95.076L7.812 97.164C9.018 97.128 10.908 97.074 12.636 96.93V99.486H7.56C7.002 99.486 6.39 99.432 5.904 99.378V101.7C6.372 101.664 7.038 101.628 7.596 101.628H12.546C12.204 104.292 10.764 106.218 8.028 107.478L10.314 109.026C13.356 107.208 14.652 104.652 14.922 101.628H19.584C20.07 101.628 20.682 101.664 21.168 101.7V99.378C20.772 99.414 19.908 99.486 19.53 99.486H14.994ZM24.156 102.492C24.822 102.438 26.028 102.402 27.054 102.402H36.72C37.476 102.402 38.394 102.474 38.826 102.492V99.666C38.358 99.702 37.548 99.774 36.72 99.774H27.054C26.118 99.774 24.804 99.72 24.156 99.666V102.492ZM54.846 95.382C54.45 95.508 53.838 95.58 53.28 95.58H49.59L49.608 95.562C49.824 95.184 50.292 94.356 50.724 93.726L48.114 92.916C47.952 93.546 47.574 94.374 47.304 94.806C46.404 96.372 44.73 98.838 41.562 100.782L43.506 102.276C45.324 101.034 46.998 99.306 48.258 97.632H53.424C53.154 98.712 52.434 100.188 51.552 101.466C50.346 100.746 49.122 100.062 48.168 99.576L46.638 101.286C47.556 101.808 48.78 102.546 50.004 103.338C48.51 104.868 46.476 106.398 43.29 107.37L45.378 109.188C48.294 108.072 50.418 106.452 52.02 104.706C52.686 105.174 53.262 105.606 53.694 105.984L55.332 103.878C54.882 103.554 54.27 103.14 53.604 102.726C54.792 100.998 55.62 99.18 56.088 97.794C56.25 97.344 56.484 96.858 56.682 96.516L54.846 95.382ZM60.156 102.492C60.822 102.438 62.028 102.402 63.054 102.402H72.72C73.476 102.402 74.394 102.474 74.826 102.492V99.666C74.358 99.702 73.548 99.774 72.72 99.774H63.054C62.118 99.774 60.804 99.72 60.156 99.666V102.492ZM77.256 102.6L79.416 104.832C79.74 104.364 80.136 103.716 80.55 103.14C81.306 102.132 82.584 100.368 83.286 99.468C83.808 98.82 84.132 98.73 84.762 99.414C85.608 100.35 86.922 102.06 88.038 103.356C89.172 104.688 90.702 106.398 91.98 107.604L93.816 105.498C92.106 103.968 90.594 102.366 89.46 101.124C88.398 99.972 86.976 98.136 85.77 96.948C84.474 95.688 83.304 95.814 82.062 97.236C80.964 98.514 79.578 100.35 78.75 101.196C78.21 101.772 77.778 102.168 77.256 102.6ZM99.414 104.76C98.748 104.76 98.028 103.878 98.028 102.078C98.028 100.116 99.594 97.524 102.546 96.912C102.33 98.388 102.006 99.918 101.592 101.232C100.872 103.644 100.152 104.76 99.414 104.76ZM104.31 108.738C108.81 108.054 111.114 105.39 111.114 101.646C111.114 97.758 108.324 94.68 103.914 94.68C99.288 94.68 95.706 98.208 95.706 102.312C95.706 105.318 97.38 107.496 99.342 107.496C101.286 107.496 102.834 105.3 103.896 101.7C104.4 100.026 104.706 98.37 104.958 96.858C107.352 97.272 108.684 99.108 108.684 101.574C108.684 104.166 106.92 105.804 104.634 106.344C104.166 106.452 103.662 106.542 102.978 106.632L104.31 108.738ZM118.8 100.494L117.432 100.854V98.118H118.926V96.156H117.432V92.772H115.38V96.156H113.292V98.118H115.38V101.358C114.462 101.574 113.616 101.772 112.932 101.916L113.382 103.986L115.38 103.446V107.136C115.38 107.406 115.29 107.478 115.074 107.478C114.84 107.496 114.102 107.496 113.4 107.46C113.67 108.054 113.94 108.972 113.994 109.548C115.236 109.548 116.082 109.476 116.676 109.116C117.252 108.792 117.432 108.216 117.432 107.154V102.87C117.972 102.708 118.512 102.564 119.034 102.402L118.8 100.494ZM122.49 106.326C121.968 106.326 121.878 106.254 121.878 105.804V105.336C123.138 105.084 124.578 104.706 125.694 104.238L124.452 102.924C123.822 103.248 122.85 103.572 121.878 103.842V102.87H121.41C121.518 102.726 121.608 102.6 121.716 102.456H127.494C127.296 105.822 127.044 107.244 126.684 107.604C126.504 107.784 126.342 107.838 126.036 107.838C125.874 107.838 125.604 107.838 125.28 107.82C125.874 107.586 126.144 107.046 126.288 105.948C125.802 105.84 125.046 105.552 124.686 105.3C124.632 106.182 124.542 106.326 124.128 106.326H122.49ZM121.824 97.182H126.72V98.154H121.824V97.182ZM121.824 94.824H126.72V95.778H121.824V94.824ZM122.778 100.692C122.958 100.35 123.12 100.008 123.246 99.666H128.754V93.312H119.88V99.666H121.05C120.33 101.214 119.196 102.618 117.864 103.518C118.314 103.842 119.052 104.598 119.358 104.976C119.592 104.796 119.826 104.58 120.06 104.364V105.822C120.06 107.46 120.456 107.964 122.256 107.964H124.272C124.506 108.45 124.668 109.08 124.704 109.53C125.604 109.566 126.45 109.566 126.99 109.512C127.566 109.422 128.016 109.278 128.412 108.792C128.988 108.126 129.276 106.29 129.528 101.52C129.564 101.268 129.582 100.692 129.582 100.692H122.778ZM147.42 95.292C146.952 94.572 145.944 93.546 145.152 92.826L143.586 93.87C144.36 94.626 145.35 95.742 145.746 96.444L147.42 95.292ZM140.31 106.434H137.016V105.732H140.076V101.304H137.034V100.602H140.328V99.108H137.034V98.316H140.994C141.138 100.944 141.444 103.356 141.948 105.246C141.444 105.84 140.886 106.362 140.31 106.83V106.434ZM133.686 104.022H135.306V104.688H133.686V104.022ZM133.686 102.348H135.306V103.014H133.686V102.348ZM136.854 103.014V102.348H138.51V103.014H136.854ZM136.854 104.688V104.022H138.51V104.688H136.854ZM145.224 99.09C144.81 100.476 144.252 101.772 143.586 102.924C143.352 101.592 143.19 100.026 143.082 98.316H147.672V96.552H143.01C142.974 95.328 142.956 94.068 142.992 92.772H140.832C140.832 94.05 140.85 95.31 140.904 96.552H137.124V95.598H140.004V93.978H137.124V92.772H135.072V93.978H132.174V95.598H135.072V96.552H131.382V98.316H135.108V99.108H131.868V100.602H135.108V101.304H132.192V105.732H135.144V106.434H131.616V107.982H135.144V109.584H137.016V107.982H138.69C139.212 108.414 139.806 109.062 140.112 109.602C141.066 108.972 141.93 108.234 142.722 107.424C143.388 108.774 144.27 109.566 145.422 109.566C147.006 109.566 147.654 108.792 147.942 105.66C147.42 105.462 146.7 105.012 146.25 104.526C146.16 106.614 145.98 107.478 145.62 107.478C145.08 107.478 144.612 106.794 144.216 105.624C145.44 103.932 146.412 101.934 147.132 99.684L145.224 99.09ZM159.714 105.408C159.696 104.598 159.66 103.284 159.642 102.294C160.74 101.79 161.748 101.394 162.54 101.088C163.152 100.836 164.088 100.476 164.664 100.332L163.764 98.262C163.116 98.568 162.486 98.874 161.802 99.18C161.064 99.504 160.308 99.81 159.39 100.242C158.994 99.324 158.094 98.856 157.014 98.856C156.42 98.856 155.466 98.982 154.998 99.216C155.376 98.694 155.736 98.046 156.024 97.416C157.932 97.344 160.128 97.2 161.838 96.948L161.856 94.86C160.29 95.148 158.49 95.292 156.816 95.382C157.032 94.662 157.158 94.05 157.248 93.618L154.908 93.42C154.89 93.924 154.764 94.644 154.548 95.454H153.684C152.784 95.454 151.452 95.4 150.552 95.256V97.344C151.524 97.434 152.838 97.47 153.558 97.47H153.774C152.982 99.054 151.722 100.638 149.85 102.366L151.758 103.788C152.37 103.014 152.874 102.366 153.414 101.826C154.098 101.178 155.196 100.602 156.204 100.602C156.69 100.602 157.158 100.764 157.446 101.214C155.412 102.258 153.252 103.698 153.252 105.966C153.252 108.27 155.358 108.936 158.148 108.936C159.822 108.936 162 108.792 163.188 108.648L163.26 106.326C161.694 106.65 159.714 106.848 158.202 106.848C156.456 106.848 155.61 106.578 155.61 105.588C155.61 104.706 156.33 104.004 157.644 103.284C157.626 104.058 157.608 104.886 157.572 105.408H159.714ZM169.236 102.474C169.092 103.158 168.894 104.022 168.894 105.048C168.894 107.496 170.928 108.864 175.014 108.864C177.516 108.864 179.658 108.63 181.206 108.27L181.188 105.75C179.604 106.182 177.336 106.452 174.924 106.452C172.35 106.452 171.288 105.624 171.288 104.49C171.288 103.896 171.414 103.338 171.576 102.69L169.236 102.474ZM179.19 93.816C179.442 94.176 179.712 94.644 179.964 95.112C178.596 95.238 176.634 95.346 174.924 95.346C173.052 95.346 171.396 95.274 170.082 95.13V97.506C171.522 97.614 173.07 97.704 174.942 97.704C176.634 97.704 178.848 97.578 180.09 97.488V95.346C180.27 95.706 180.45 96.048 180.594 96.336L182.052 95.706C181.71 95.04 181.062 93.906 180.612 93.24L179.19 93.816ZM181.314 93.006C181.818 93.69 182.394 94.734 182.772 95.49L184.194 94.878C183.888 94.248 183.222 93.096 182.736 92.43L181.314 93.006ZM201.51 100.44V98.568H192.996C193.248 98.082 193.482 97.614 193.68 97.11L192.69 96.84C193.212 96.696 193.716 96.534 194.202 96.372C196.02 97.02 197.64 97.668 198.774 98.226L200.412 96.75C199.458 96.3 198.252 95.832 196.92 95.364C197.964 94.914 198.954 94.41 199.8 93.888L198.018 92.664C196.992 93.33 195.66 93.942 194.148 94.446C192.222 93.852 190.242 93.312 188.586 92.916L187.092 94.158C188.352 94.482 189.738 94.896 191.142 95.346C189.432 95.778 187.614 96.102 185.886 96.354C186.336 96.768 187.002 97.668 187.344 98.136C188.586 97.884 189.9 97.614 191.214 97.254C191.052 97.686 190.836 98.136 190.602 98.568H185.508V100.44H189.378C188.208 101.934 186.732 103.266 184.968 104.166C185.418 104.562 186.066 105.318 186.39 105.768C187.11 105.39 187.758 104.94 188.388 104.418V108.648H190.512V104.076H193.068V109.566H195.138V104.076H197.964V106.452C197.964 106.65 197.874 106.722 197.64 106.722C197.406 106.722 196.578 106.722 195.858 106.686C196.128 107.208 196.416 107.946 196.506 108.522C197.712 108.522 198.594 108.504 199.26 108.216C199.926 107.91 200.106 107.424 200.106 106.47V102.204H195.138V100.728H193.068V102.204H190.638C191.106 101.628 191.538 101.052 191.934 100.44H201.51ZM217.386 94.824L217.35 95.598H214.524C214.542 95.346 214.56 95.094 214.578 94.824H217.386ZM214.254 97.776C214.308 97.506 214.344 97.236 214.38 96.966H217.296C217.278 97.254 217.26 97.524 217.242 97.776H214.254ZM204.426 98.568C204.426 100.44 204.948 101.088 206.928 101.088H209.358C209.952 101.088 210.618 101.07 210.96 100.944L210.942 100.8C211.284 101.142 211.662 101.628 211.824 101.952C212.814 101.232 213.444 100.296 213.858 99.162H217.08C217.026 99.54 216.954 99.756 216.864 99.864C216.738 100.026 216.576 100.08 216.36 100.08C216.09 100.08 215.604 100.062 215.028 100.008C215.28 100.44 215.478 101.16 215.496 101.628C216.234 101.646 216.936 101.646 217.368 101.574C217.854 101.502 218.232 101.358 218.574 100.908C219.006 100.332 219.186 98.64 219.348 94.068C219.366 93.852 219.366 93.312 219.366 93.312H212.724C212.652 96.534 212.544 98.874 210.888 100.332C210.834 99.936 210.798 99.504 210.762 99.18C210.438 99.27 209.754 99.306 209.304 99.306H206.946C206.496 99.306 206.388 99.108 206.388 98.604V96.264H211.734V94.464H208.458V92.772H206.478V94.464H203.166V96.264H204.426V98.568ZM212.544 107.496V106.578H217.656V104.868H212.544V103.968H218.52V102.222H204.606V103.968H210.384V104.868H205.344V106.578H210.384V107.496H203.49V109.26H219.492V107.496H212.544ZM225.414 104.76C224.748 104.76 224.028 103.878 224.028 102.078C224.028 100.116 225.594 97.524 228.546 96.912C228.33 98.388 228.006 99.918 227.592 101.232C226.872 103.644 226.152 104.76 225.414 104.76ZM230.31 108.738C234.81 108.054 237.114 105.39 237.114 101.646C237.114 97.758 234.324 94.68 229.914 94.68C225.288 94.68 221.706 98.208 221.706 102.312C221.706 105.318 223.38 107.496 225.342 107.496C227.286 107.496 228.834 105.3 229.896 101.7C230.4 100.026 230.706 98.37 230.958 96.858C233.352 97.272 234.684 99.108 234.684 101.574C234.684 104.166 232.92 105.804 230.634 106.344C230.166 106.452 229.662 106.542 228.978 106.632L230.31 108.738ZM255.618 97.668V95.616H248.508V92.682H246.294V95.616H239.4V97.668H244.548C244.35 101.52 243.936 105.624 239.076 107.874C239.634 108.342 240.282 109.098 240.588 109.692C244.188 107.874 245.682 105.066 246.366 102.024H251.316C251.064 105.3 250.74 106.866 250.272 107.262C250.056 107.46 249.804 107.496 249.408 107.496C248.886 107.496 247.626 107.496 246.384 107.37C246.78 107.982 247.104 108.864 247.14 109.476C248.346 109.53 249.552 109.548 250.218 109.476C251.064 109.404 251.622 109.224 252.162 108.648C252.882 107.856 253.26 105.84 253.584 100.944C253.638 100.656 253.656 100.008 253.656 100.008H246.708C246.798 99.234 246.852 98.442 246.906 97.668H255.618ZM257.256 102.6L259.416 104.832C259.74 104.364 260.136 103.716 260.55 103.14C261.306 102.132 262.584 100.368 263.286 99.468C263.808 98.82 264.132 98.73 264.762 99.414C265.608 100.35 266.922 102.06 268.038 103.356C269.172 104.688 270.702 106.398 271.98 107.604L273.816 105.498C272.106 103.968 270.594 102.366 269.46 101.124C268.398 99.972 266.976 98.136 265.77 96.948C264.474 95.688 263.304 95.814 262.062 97.236C260.964 98.514 259.578 100.35 258.75 101.196C258.21 101.772 257.778 102.168 257.256 102.6Z" fill="#2D2D2D"/>
<path d="M27.0953 29.0728L25.774 37.1606C24.6529 36.1864 23.4317 35.4523 22.1104 34.9585C20.7891 34.4513 19.4144 34.1978 17.9864 34.1978C15.5574 34.1978 13.5554 35.0452 11.9805 36.7402C10.4057 38.4352 9.61823 40.5973 9.61823 43.2266C9.61823 45.6022 10.2789 47.444 11.6002 48.752C12.9214 50.0465 14.7899 50.6938 17.2056 50.6938C18.2466 50.6938 19.3144 50.5671 20.4088 50.3135C21.5165 50.0599 22.6776 49.6795 23.8922 49.1724L22.671 56.7598C21.67 57.0801 20.5622 57.3203 19.3477 57.4805C18.1465 57.654 16.8453 57.7407 15.4439 57.7407C11.2665 57.7407 7.91656 56.4461 5.3941 53.8569C2.88499 51.2677 1.63043 47.8311 1.63043 43.5469C1.63043 41.4782 1.95074 39.5096 2.59137 37.6411C3.24534 35.7593 4.19961 34.0509 5.45416 32.5161C6.92226 30.7277 8.75071 29.3597 10.9395 28.4121C13.1417 27.4645 15.6041 26.9907 18.3267 26.9907C19.8749 26.9907 21.3764 27.1642 22.8311 27.5112C24.2859 27.8582 25.7073 28.3787 27.0953 29.0728ZM38.1356 57L42.7602 27.6914H50.6479L48.8261 39.0024H59.0761L60.8578 27.6914H68.7655L64.121 57H56.2133L58.0951 45.0283H47.8852L46.0033 57H38.1356ZM89.9158 50.4736H98.9846L97.9636 57H81.0671L85.6916 27.6914H102.588L101.527 34.458H92.4582L91.7175 39.2427H100.126L99.1448 45.6089H90.6965L89.9158 50.4736ZM122.918 50.4736H131.986L130.965 57H114.069L118.693 27.6914H135.59L134.529 34.458H125.46L124.719 39.2427H133.128L132.147 45.6089H123.698L122.918 50.4736ZM155.919 50.4736H164.988L163.967 57H147.071L151.695 27.6914H168.592L167.531 34.458H158.462L157.721 39.2427H166.129L165.148 45.6089H156.7L155.919 50.4736ZM184.136 57L187.7 34.498H181.134L182.255 27.6914H202.955L201.834 34.498H195.568L192.004 57H184.136ZM207.709 57L222.383 27.6914H232.193L238.419 57H230.471L229.29 51.4746H219.04L216.237 57H207.709ZM221.983 44.9482H228.169L226.828 38.1016C226.694 37.4209 226.594 36.8136 226.527 36.2798C226.461 35.7459 226.421 35.2454 226.407 34.7783C226.127 35.5791 225.867 36.2865 225.627 36.9004C225.4 37.501 225.219 37.9481 225.086 38.2417L221.983 44.9482ZM250.681 57L255.305 27.6914H263.193L261.371 39.0024H271.621L273.403 27.6914H281.31L276.666 57H268.758L270.64 45.0283H260.43L258.548 57H250.681Z" fill="black"/>
</g>
<defs>
<clipPath id="clip0">
<rect width="282" height="138" fill="white"/>
</clipPath>
</defs>
</svg>
