<svg width="180" height="33" viewBox="0 0 180 33" fill="none" xmlns="http://www.w3.org/2000/svg">
<path d="M15.9375 13.8311L15.1641 18.5654C14.5078 17.9951 13.793 17.5654 13.0195 17.2764C12.2461 16.9795 11.4414 16.8311 10.6055 16.8311C9.18359 16.8311 8.01172 17.3271 7.08984 18.3193C6.16797 19.3115 5.70703 20.5771 5.70703 22.1162C5.70703 23.5068 6.09375 24.585 6.86719 25.3506C7.64062 26.1084 8.73438 26.4873 10.1484 26.4873C10.7578 26.4873 11.3828 26.4131 12.0234 26.2646C12.6719 26.1162 13.3516 25.8936 14.0625 25.5967L13.3477 30.0381C12.7617 30.2256 12.1133 30.3662 11.4023 30.46C10.6992 30.5615 9.9375 30.6123 9.11719 30.6123C6.67188 30.6123 4.71094 29.8545 3.23438 28.3389C1.76562 26.8232 1.03125 24.8115 1.03125 22.3037C1.03125 21.0928 1.21875 19.9404 1.59375 18.8467C1.97656 17.7451 2.53516 16.7451 3.26953 15.8467C4.12891 14.7998 5.19922 13.999 6.48047 13.4443C7.76953 12.8896 9.21094 12.6123 10.8047 12.6123C11.7109 12.6123 12.5898 12.7139 13.4414 12.917C14.293 13.1201 15.125 13.4248 15.9375 13.8311ZM22.4002 30.1787L25.1072 13.0225H29.7244L28.658 19.6436H34.658L35.7009 13.0225H40.3298L37.6111 30.1787H32.9822L34.0837 23.1709H28.1072L27.0056 30.1787H22.4002ZM52.7105 26.3584H58.0191L57.4214 30.1787H47.5308L50.2378 13.0225H60.1284L59.5073 16.9834H54.1987L53.7652 19.7842H58.687L58.1128 23.5107H53.1675L52.7105 26.3584ZM72.0286 26.3584H77.3372L76.7395 30.1787H66.8489L69.5559 13.0225H79.4466L78.8255 16.9834H73.5169L73.0833 19.7842H78.0052L77.4309 23.5107H72.4856L72.0286 26.3584ZM91.3467 26.3584H96.6553L96.0577 30.1787H86.167L88.8741 13.0225H98.7647L98.1436 16.9834H92.835L92.4014 19.7842H97.3233L96.7491 23.5107H91.8037L91.3467 26.3584ZM107.864 30.1787L109.95 17.0068H106.106L106.762 13.0225H118.88L118.223 17.0068H114.555L112.47 30.1787H107.864ZM121.663 30.1787L130.253 13.0225H135.995L139.639 30.1787H134.987L134.295 26.9443H128.295L126.655 30.1787H121.663ZM130.018 23.124H133.639L132.854 19.1162C132.776 18.7178 132.717 18.3623 132.678 18.0498C132.639 17.7373 132.616 17.4443 132.608 17.1709C132.444 17.6396 132.292 18.0537 132.151 18.4131C132.018 18.7646 131.913 19.0264 131.835 19.1982L130.018 23.124ZM146.817 30.1787L149.524 13.0225H154.141L153.075 19.6436H159.075L160.117 13.0225H164.746L162.028 30.1787H157.399L158.5 23.1709H152.524L151.422 30.1787H146.817Z" fill="black"/>
<path d="M172.717 14.7488L171.811 18.991H169.592L171.757 8.88159C172.126 7.15763 172.678 5.94409 173.413 5.24097C174.152 4.53263 175.108 4.17847 176.28 4.17847C177.316 4.17847 178.113 4.4467 178.671 4.98315C179.228 5.5144 179.507 6.14201 179.507 6.86597C179.507 7.49618 179.309 8.05607 178.913 8.54565C178.522 9.03524 178.014 9.39982 177.389 9.6394C178.561 10.1759 179.147 11.0717 179.147 12.3269C179.147 13.3373 178.793 14.2071 178.085 14.9363C177.382 15.6602 176.491 16.0222 175.413 16.0222C174.267 16.0222 173.369 15.5977 172.717 14.7488ZM174.921 8.60034C175.077 8.60555 175.186 8.60815 175.249 8.60815C175.983 8.60815 176.522 8.43368 176.866 8.08472C177.21 7.73576 177.382 7.35815 177.382 6.9519C177.382 6.67586 177.277 6.44149 177.069 6.24878C176.866 6.05607 176.6 5.95972 176.272 5.95972C175.866 5.95972 175.501 6.0769 175.178 6.31128C174.861 6.54045 174.621 6.83993 174.46 7.20972C174.298 7.57951 174.142 8.11597 173.991 8.81909L173.491 11.1082C173.382 11.629 173.327 12.0587 173.327 12.3972C173.327 13.0378 173.494 13.5274 173.827 13.866C174.165 14.1993 174.579 14.366 175.069 14.366C175.533 14.366 175.975 14.1837 176.397 13.8191C176.824 13.4493 177.038 12.9024 177.038 12.1785C177.038 10.9285 176.29 10.3035 174.796 10.3035C174.733 10.3035 174.645 10.3061 174.53 10.3113L174.921 8.60034Z" fill="black"/>
</svg>
