<svg width="32" height="32" viewBox="0 0 32 32" fill="none" xmlns="http://www.w3.org/2000/svg">
<path d="M28.7495 13.1307C28.6267 13.1584 28.4731 13.2139 28.3503 13.2693C28.166 13.3802 28.0124 13.5465 27.8281 13.6851C27.6131 13.8792 27.3367 14.0733 27.0603 14.1842C26.5688 14.3782 26.016 14.4059 25.4938 14.3782C24.6031 14.3228 23.7739 14.101 22.9446 13.8515C22.4224 13.6851 21.931 13.5188 21.4089 13.3525C20.6717 13.1307 19.8732 13.0198 19.1053 12.8812C18.6139 12.798 18.1224 12.6871 17.6617 12.4653C17.1396 12.1881 16.6175 11.9109 16.0953 11.6337C15.266 11.2178 14.4367 10.802 13.6075 10.3584C13.2696 10.1921 12.901 9.99802 12.5632 9.80396C12.3482 9.69307 12.1332 9.52673 11.8875 9.41584C11.4575 9.22178 10.9968 9.11089 10.5053 9.05545C10.321 9.02772 10.1368 9.02772 9.95248 9C9.76819 9 9.58391 9 9.36891 9C9.3382 9 9.30748 9 9.27677 9C8.53963 9.02772 7.86392 9.16634 7.1882 9.38812C6.69678 9.55446 6.17464 9.72079 5.68321 9.88713C5.62178 9.91485 5.56035 9.88713 5.52964 9.85941C5.4375 9.80396 5.34535 9.72079 5.25321 9.69307C5.0075 9.55446 4.7925 9.6099 4.63893 9.80396C4.60821 9.80396 4.60821 9.80396 4.5775 9.80396C4.39322 9.74851 4.23964 9.80396 4.1475 9.94257C4.08607 10.0535 4.05536 10.1644 4.05536 10.2752C4.08607 10.4693 3.99393 10.6079 3.77893 10.6911C3.74822 10.6911 3.7175 10.7188 3.7175 10.7188C3.56393 10.802 3.44108 10.9129 3.34893 11.0792C3.28751 11.1901 3.25679 11.3287 3.22608 11.4396C3.16465 11.7168 3.07251 12.0218 3.01108 12.299C2.98036 12.4099 3.01108 12.5208 3.13393 12.5762C3.31822 12.7149 3.44108 12.8257 3.53322 12.9366C3.56393 12.9921 3.62536 13.0198 3.65608 13.0752C3.80965 13.1861 3.9325 13.2416 4.1475 13.1584C4.42393 13.0475 4.66964 12.9089 4.88464 12.7426C4.97678 12.6594 5.09964 12.6317 5.2225 12.6317C5.40678 12.6317 5.59107 12.6317 5.77535 12.6317C5.77535 12.6317 5.77535 12.6317 5.80607 12.6594C5.71392 12.6871 5.59107 12.7426 5.49893 12.7703C5.19178 12.8812 4.88464 13.0198 4.66964 13.2693C4.48536 13.4634 4.3625 13.7129 4.33179 13.9624C4.30107 14.1564 4.42393 14.2396 4.60821 14.2673C4.70036 14.2673 4.76179 14.295 4.82321 14.3505C4.91536 14.4337 5.0075 14.4614 5.13036 14.4891C5.16107 14.4891 5.2225 14.5168 5.25321 14.5446C5.37607 14.6 5.46821 14.6 5.59107 14.5168C5.68321 14.4337 5.74464 14.3505 5.83678 14.2673C5.89821 14.2119 5.92892 14.1564 5.99035 14.0733C6.05178 14.1842 6.11321 14.2673 6.20535 14.3782C6.26678 14.4614 6.35892 14.5168 6.48178 14.5168C6.69678 14.5168 6.88106 14.5446 7.09606 14.5446C7.21892 14.5446 7.28035 14.5168 7.31106 14.4059C7.34178 14.3228 7.4032 14.2396 7.49535 14.2119C7.58749 14.1564 7.6182 14.1287 7.55677 14.0455C7.52606 14.0178 7.52606 13.9901 7.49535 13.9347C7.52606 13.9347 7.52606 13.9069 7.55677 13.9069C7.98677 13.796 8.41677 13.796 8.84677 13.8515C9.3382 13.9069 9.79891 13.9069 10.2903 13.8792C10.5668 13.8515 10.8739 13.8515 11.1503 13.9069C12.041 14.0733 12.9625 14.2396 13.8532 14.3782C14.1603 14.4337 14.4675 14.4891 14.7746 14.5723C15.3582 14.7386 15.8496 15.099 16.2489 15.5149C16.6789 15.9584 17.0475 16.4297 17.4467 16.8733C17.7232 17.1782 17.9689 17.4832 18.3374 17.7327C18.8903 18.1208 19.5353 18.398 20.1803 18.6475C20.6717 18.8416 21.1017 19.0911 21.4703 19.4515C21.716 19.7287 21.9924 20.0059 22.2689 20.2554C22.9446 20.9485 23.6203 21.6416 24.081 22.501C24.2039 22.7228 24.3881 22.9168 24.6953 23C24.726 23 24.7874 23 24.8181 23C24.8796 22.9723 24.941 22.9723 24.9717 22.9168C25.0331 22.8337 25.0946 22.8337 25.1867 22.8337C25.2174 22.8337 25.2174 22.8337 25.2481 22.8337C25.4631 22.8059 25.6781 22.6396 25.7088 22.4733C25.7396 22.3069 25.7396 22.1406 25.6474 21.9743C25.586 21.8634 25.5553 21.7525 25.4938 21.6139C25.4324 21.4475 25.3403 21.3366 25.1867 21.2535C25.0946 21.198 24.9717 21.1703 24.8796 21.1149C24.7567 21.0317 24.6031 20.9762 24.511 20.8653C24.3574 20.699 24.2346 20.5327 24.1424 20.3663C23.8967 19.9228 23.651 19.4515 23.436 18.9802C23.2824 18.6752 23.0981 18.398 22.8217 18.204C22.6989 18.1208 22.576 18.0376 22.4839 17.9267C21.931 17.4 21.5624 16.7901 21.3474 16.097C21.2246 15.6812 21.1017 15.2653 20.9482 14.8495C20.8867 14.6554 20.7639 14.4614 20.5796 14.3228C20.5182 14.2673 20.4567 14.2396 20.3953 14.1842C20.4567 14.1842 20.5182 14.1842 20.5489 14.1842C21.4396 14.1564 22.2689 14.3505 23.0981 14.5446C23.7124 14.6832 24.3267 14.8495 24.941 14.9881C25.5246 15.099 26.0774 15.1545 26.661 15.0713C27.4288 14.9604 28.1046 14.6554 28.6267 14.101C28.8417 13.8792 28.9953 13.602 28.9953 13.297C29.026 13.1584 28.9031 13.0752 28.7495 13.1307ZM4.11679 11.6337C4.05536 11.7168 3.96322 11.6891 3.90179 11.6614C3.80965 11.6059 3.80965 11.5782 3.87107 11.5228C3.90179 11.495 3.96322 11.4673 3.99393 11.4396C4.02465 11.4119 4.05536 11.4119 4.08607 11.3842C4.17822 11.4673 4.17822 11.5505 4.11679 11.6337Z" fill="black"/>
</svg>
